:SAMPLES-PER-SECOND 30
:FULLY-SPECIFIED
:DEGREES
1
root  82.1758 39.2845 3.37778 -60.4399 -87.1096 59.1994
RightUpLeg  0.216977 -10.2006 -8.89722
RightLeg  6.02541 8.24354 -0.0483561
RightFoot  -4.98334 -0.267806 4.42079
RightToes  1.45519e-009 0 -3.6325e-017
Spine  -1.45966 0.673843 2.13756
Spine1  7.60743 1.54218 -3.34921
HEad  -8.0401 -5.48414 -1.61892
LeftShoulder1  -0.473906 4.71124 -33.1031
LeftArm  11.6714 2.84794 -45.0793
LeftForeArm  67.4833 -76.3951 -40.0408
LeftHand  -1.10058 1.57022 32.9351
RightShoulder  -1.00646 -6.16957 31.3598
RightArm  29.5849 -7.58415 39.1335
RightForeArm  113.986 78.8638 114.835
RightHand  0.123703 -2.04289 5.55108
LeftUpLeg  1.80378 7.08712 4.55946
LeftLeg  -0.300566 3.34363 0.74539
LeftFoot  0.937669 0.560019 -5.3171
LeftToes  -2.53752e-010 -2.07034e-011 -2.70101e-011
2
root  82.1705 39.2791 3.36976 -60.8298 -87.0611 59.4724
RightUpLeg  0.2862 -10.2136 -8.94614
RightLeg  6.16768 8.27765 -0.0581877
RightFoot  -5.04376 -0.267678 4.4188
RightToes  1.45519e-009 0 -3.6325e-017
Spine  -1.33977 0.66455 1.92369
Spine1  7.66982 1.49555 -3.13546
HEad  -8.51438 -5.71131 -1.67661
LeftShoulder1  -0.481232 4.73106 -33.0649
LeftArm  11.4867 2.74543 -45.1879
LeftForeArm  66.9084 -76.2956 -39.746
LeftHand  -1.44716 0.379753 32.8572
RightShoulder  -1.00652 -6.16967 31.3287
RightArm  29.0137 -7.14329 38.6422
RightForeArm  60.229 78.5182 87.7222
RightHand  1.77875 3.27766 19.83
LeftUpLeg  1.97207 7.10937 4.56298
LeftLeg  -0.362867 3.29669 0.706362
LeftFoot  0.9198 0.569453 -5.46435
LeftToes  -2.53752e-010 -2.07034e-011 -2.70101e-011
3
root  82.1678 39.2812 3.35976 -63.8404 -87.219 62.4421
RightUpLeg  0.284962 -10.0939 -8.82272
RightLeg  6.16032 8.35086 -0.108549
RightFoot  -5.03607 -0.274262 4.52103
RightToes  1.45519e-009 0 -3.6325e-017
Spine  -1.31351 0.740231 1.90523
Spine1  7.83253 1.54656 -3.01296
HEad  -8.88181 -5.75938 -1.74022
LeftShoulder1  -0.498393 4.77299 -33.1207
LeftArm  11.2963 2.61315 -45.236
LeftForeArm  65.3917 -76.1504 -39.5357
LeftHand  -2.16948 -2.05103 33.2629
RightShoulder  -1.00685 -6.17026 31.1737
RightArm  28.3378 -6.5858 38.1897
RightForeArm  39.5586 77.4653 68.0272
RightHand  4.45269 10.6572 30.8609
LeftUpLeg  2.02686 7.24176 4.70463
LeftLeg  -0.289992 3.36556 0.64084
LeftFoot  0.920693 0.558637 -5.29553
LeftToes  -2.53752e-010 -2.07034e-011 -2.70101e-011
4
root  82.1496 39.2814 3.35313 -66.1927 -87.2785 64.8142
RightUpLeg  0.284441 -10.0487 -8.7821
RightLeg  6.13054 8.43389 -0.138464
RightFoot  -5.06411 -0.270153 4.45722
RightToes  1.45519e-009 0 -3.6325e-017
Spine  -1.45362 0.824915 1.89285
Spine1  7.96327 1.63101 -2.99656
HEad  -9.24231 -5.98526 -1.6704
LeftShoulder1  -0.464607 4.69024 -33.0154
LeftArm  11.0189 2.61039 -45.2574
LeftForeArm  65.18 -76.1544 -39.6243
LeftHand  -2.41591 -3.18509 31.9236
RightShoulder  -1.00027 -6.15211 31.1948
RightArm  31.4212 -7.49283 40.0346
RightForeArm  120.42 78.9743 117.526
RightHand  -0.754899 3.2968 -9.37927
LeftUpLeg  2.06614 7.31187 4.75387
LeftLeg  -0.291223 3.37292 0.58667
LeftFoot  0.87988 0.55461 -5.23017
LeftToes  -2.53752e-010 -2.07034e-011 -2.70101e-011
5
root  82.1502 39.2787 3.35755 -64.1361 -87.1818 62.8241
RightUpLeg  0.220787 -10.1231 -8.85048
RightLeg  6.16788 8.37179 -0.0940644
RightFoot  -5.09154 -0.268288 4.42826
RightToes  1.45519e-009 0 -3.6325e-017
Spine  -1.50987 0.754581 1.84049
Spine1  8.0378 1.55701 -2.97164
HEad  -9.80958 -6.32313 -1.60619
LeftShoulder1  -0.399189 4.5241 -32.9832
LeftArm  10.8328 2.48252 -45.1823
LeftForeArm  62.8257 -75.9516 -39.4179
LeftHand  -3.69931 -6.90413 34.335
RightShoulder  -0.98256 -6.10252 31.2268
RightArm  33.8883 -7.86992 40.7071
RightForeArm  112.412 79.2907 110.88
RightHand  -1.67399 1.47983 -28.4565
LeftUpLeg  1.94353 7.24674 4.67925
LeftLeg  -0.23504 3.33978 0.608239
LeftFoot  0.829516 0.562587 -5.34175
LeftToes  -2.53752e-010 -2.07034e-011 -2.70101e-011
6
root  82.1497 39.2747 3.36918 -59.745 -86.988 58.513
RightUpLeg  0.174092 -10.2892 -9.00952
RightLeg  6.23129 8.26968 0.0125929
RightFoot  -5.12765 -0.263471 4.35347
RightToes  1.45519e-009 0 -3.6325e-017
Spine  -1.5456 0.627831 1.73083
Spine1  8.11873 1.41145 -2.88117
HEad  -10.5478 -6.58026 -1.69527
LeftShoulder1  -0.374461 4.46232 -32.9272
LeftArm  10.374 2.42256 -45.135
LeftForeArm  64.5912 -76.3466 -40.7526
LeftHand  -3.24197 -6.36027 31.4913
RightShoulder  -0.990232 -6.12325 31.2234
RightArm  34.085 -7.7386 40.8667
RightForeArm  112.499 79.3579 110.342
RightHand  -1.69259 1.0589 -30.2073
LeftUpLeg  1.70494 7.10697 4.52491
LeftLeg  -0.051854 3.1783 0.679126
LeftFoot  0.831449 0.559211 -5.28899
LeftToes  -2.53752e-010 -2.07034e-011 -2.70101e-011
7
root  82.1531 39.2707 3.35331 -62.8624 -87.1564 61.4824
RightUpLeg  0.222074 -10.1389 -8.87088
RightLeg  6.3671 8.32467 -0.0487336
RightFoot  -5.25503 -0.266042 4.39339
RightToes  1.45519e-009 0 -3.6325e-017
Spine  -1.11548 0.713876 1.74938
Spine1  7.99392 1.48173 -2.81777
HEad  -10.3858 -6.18922 -1.61085
LeftShoulder1  -0.40577 4.54136 -32.9725
LeftArm  10.1992 2.33532 -45.0923
LeftForeArm  65.9254 -76.7313 -42.3048
LeftHand  -2.80045 -5.39342 29.7421
RightShoulder  -0.990074 -6.133 31.0797
RightArm  32.6547 -7.45517 40.6623
RightForeArm  114.609 79.1643 112.787
RightHand  -1.27413 1.74711 -19.7504
LeftUpLeg  1.84125 7.30669 4.72977
LeftLeg  0.0970809 3.14502 0.576464
LeftFoot  0.682479 0.559369 -5.34923
LeftToes  -2.53752e-010 -2.07034e-011 -2.70101e-011
